<?xml version="1.0" standalone="no"?>
<!DOCTYPE svg PUBLIC "-//W3C//DTD SVG 20010904//EN"
 "http://www.w3.org/TR/2001/REC-SVG-20010904/DTD/svg10.dtd">
<svg version="1.0" xmlns="http://www.w3.org/2000/svg"
 width="700.000000pt" height="700.000000pt" viewBox="0 0 700.000000 700.000000"
 preserveAspectRatio="xMidYMid meet">
<metadata>
Created by potrace 1.14, written by Peter Selinger 2001-2017
</metadata>
<g transform="translate(0.000000,700.000000) scale(0.100000,-0.100000)"
fill="#000000" stroke="none">
<path d="M3477 6974 c-1 -1 -45 -5 -97 -8 -52 -4 -102 -9 -110 -11 -8 -2 -37
-6 -64 -10 -27 -3 -53 -8 -57 -10 -4 -3 -24 -7 -44 -10 -21 -2 -45 -7 -55 -10
-10 -3 -29 -8 -42 -10 -13 -3 -34 -7 -48 -10 -14 -3 -35 -7 -47 -10 -112 -21
-401 -116 -476 -157 -86 -47 -244 -162 -372 -271 -126 -108 -310 -316 -367
-418 -12 -21 -25 -39 -30 -39 -4 0 -8 -6 -8 -14 0 -7 -10 -33 -23 -57 -21 -40
-57 -142 -63 -178 -2 -7 -8 -34 -14 -60 -13 -57 -19 -86 -26 -131 -2 -19 -7
-46 -9 -60 -3 -14 -7 -40 -10 -57 -10 -66 -16 -99 -26 -141 -20 -89 -23 -152
-23 -368 1 -145 6 -234 14 -258 6 -20 13 -43 14 -49 2 -7 6 -24 10 -39 9 -32
0 -68 -18 -68 -7 0 -21 -16 -32 -35 -10 -19 -21 -35 -25 -35 -4 0 -10 -10 -13
-22 -31 -104 -27 -245 9 -373 9 -33 19 -70 22 -82 3 -13 10 -23 15 -23 5 0 7
-4 4 -8 -5 -9 40 -46 58 -48 6 -1 13 -3 16 -4 16 -7 87 -5 97 2 18 14 24 -7
12 -39 -6 -15 -12 -36 -15 -47 -6 -32 -88 -132 -213 -261 -91 -94 -119 -148
-123 -240 -2 -40 11 -112 27 -151 16 -40 74 -97 111 -111 60 -23 69 -26 79
-28 135 -32 209 -64 230 -99 60 -101 86 -183 86 -266 0 -36 -2 -74 -5 -85 -2
-11 -5 -23 -5 -26 -1 -3 -20 -12 -43 -19 -24 -7 -57 -24 -75 -37 -17 -13 -36
-23 -41 -23 -4 0 -31 -16 -58 -35 -27 -19 -54 -35 -60 -35 -14 0 -66 -57 -91
-100 -13 -21 -21 -53 -21 -82 -1 -64 0 -62 -16 -49 -25 21 -63 21 -111 1 -57
-24 -49 -25 -77 3 -19 18 -49 37 -89 54 -8 3 -85 -37 -137 -72 -24 -16 -52
-46 -63 -67 -11 -21 -17 -38 -15 -38 3 0 0 -15 -5 -32 -11 -39 -22 -120 -23
-166 0 -23 -6 -34 -21 -38 -33 -11 -65 -53 -66 -87 -1 -18 -2 -43 -4 -57 -1
-14 -6 -54 -9 -90 -4 -36 -9 -78 -11 -95 -15 -101 -18 -161 -18 -340 -1 -110
2 -240 7 -290 4 -49 9 -115 12 -145 4 -60 5 -64 28 -165 15 -62 23 -76 69
-120 44 -43 132 -94 232 -136 45 -19 161 -56 568 -181 28 -8 49 -8 85 0 41 10
49 9 62 -6 9 -9 23 -21 32 -27 8 -5 28 -19 44 -30 29 -21 106 -26 169 -12 17
4 43 9 59 12 35 7 79 29 93 47 6 7 14 32 18 56 4 23 10 42 13 43 67 7 94 53
107 179 10 97 16 144 18 145 1 1 45 22 97 48 91 45 120 72 120 113 0 7 15 23
33 35 17 13 34 26 37 29 3 3 18 12 33 19 25 14 32 13 63 -4 34 -18 54 -44 136
-175 41 -66 92 -170 110 -225 7 -22 18 -40 23 -40 6 -1 35 -9 65 -20 30 -10
60 -20 65 -21 6 -1 48 -17 95 -34 81 -30 208 -69 240 -73 19 -2 126 31 305 95
77 27 148 50 157 51 11 1 23 18 33 51 18 55 80 182 98 202 7 7 26 36 42 65 44
79 105 138 137 135 40 -5 125 -65 133 -93 9 -36 35 -73 51 -73 8 0 14 -5 14
-11 0 -5 5 -7 10 -4 6 3 10 2 10 -2 0 -9 72 -43 90 -43 6 0 10 -4 10 -10 0 -5
7 -10 15 -10 17 0 22 -19 29 -111 7 -81 16 -128 29 -154 17 -35 50 -65 71 -65
17 0 22 -7 24 -36 1 -19 7 -45 13 -56 10 -19 64 -47 104 -54 11 -1 36 -6 55
-9 87 -17 139 -10 177 23 58 52 81 62 110 50 15 -6 37 -11 48 -11 20 1 70 10
70 13 0 1 8 3 17 5 36 7 408 129 508 167 220 82 311 156 334 269 3 13 7 33 10
45 11 52 26 216 29 316 1 38 4 68 7 68 7 0 4 69 -3 76 -3 3 -2 17 3 30 5 13 6
26 0 29 -5 3 -5 18 0 34 4 16 6 32 3 34 -2 3 -6 54 -8 114 -3 101 -6 134 -21
238 -3 22 -8 60 -10 85 -9 114 -15 145 -36 167 -12 12 -29 25 -40 29 -13 4
-18 15 -18 43 0 21 -5 63 -10 92 -6 30 -13 66 -15 81 -9 51 -23 75 -64 110
-41 35 -120 80 -147 84 -19 3 -62 -19 -98 -51 -16 -14 -30 -25 -31 -25 -1 0
-24 9 -49 21 -47 20 -54 20 -117 -5 -13 -6 -15 -1 -11 24 4 32 -15 120 -27
120 -4 0 -15 14 -25 30 -9 17 -38 41 -64 54 -26 13 -56 33 -66 45 -11 12 -24
21 -29 21 -6 0 -25 11 -43 25 -18 14 -36 25 -41 25 -5 0 -25 9 -45 19 -19 11
-39 17 -42 14 -3 -4 -7 -2 -7 3 -7 46 -8 66 -9 109 0 28 6 75 15 105 9 30 17
60 18 65 1 6 17 36 35 68 27 48 41 62 80 78 26 12 58 23 72 25 70 12 191 59
224 86 29 24 84 105 77 116 0 1 -1 3 0 5 19 62 18 130 -3 194 -20 59 -32 77
-112 158 -147 148 -198 219 -230 322 -7 22 -5 22 43 18 67 -5 116 10 139 43
22 31 76 218 67 232 -3 6 -2 10 3 10 5 0 8 46 7 103 -1 117 -18 166 -79 230
-20 20 -36 44 -36 53 0 9 10 49 21 88 19 62 22 98 23 291 1 196 -5 304 -20
357 -3 10 -7 28 -9 40 -2 13 -9 50 -14 83 -6 33 -13 78 -16 100 -3 22 -10 63
-16 91 -5 28 -12 64 -15 80 -22 134 -103 311 -200 439 -33 43 -63 85 -69 93
-11 18 -207 214 -251 253 -52 46 -268 205 -304 225 -19 10 -37 21 -40 24 -23
26 -284 116 -444 155 -123 29 -336 73 -391 79 -101 12 -263 24 -268 20z m33
-6234 c0 -5 -4 -10 -10 -10 -5 0 -10 5 -10 10 0 6 5 10 10 10 6 0 10 -4 10
-10z"/>
</g>
</svg>
